<svg width="20" height="20" viewBox="0 0 20 20" fill="none" xmlns="http://www.w3.org/2000/svg">
<path d="M17.784 11.9125C18.8612 11.9125 19.7344 11.0487 19.7344 9.98311C19.7344 8.91753 18.8612 8.05371 17.784 8.05371C16.7069 8.05371 15.8337 8.91753 15.8337 9.98311C15.8337 11.0487 16.7069 11.9125 17.784 11.9125Z" fill="#181818"/>
<path d="M2.21581 11.9312C3.29294 11.9312 4.16612 11.0674 4.16612 10.0018C4.16612 8.93621 3.29294 8.07239 2.21581 8.07239C1.13869 8.07239 0.265503 8.93621 0.265503 10.0018C0.265503 11.0674 1.13869 11.9312 2.21581 11.9312Z" fill="#181818"/>
<path d="M6.11608 5.31412C7.1932 5.31412 8.06639 4.4503 8.06639 3.38472C8.06639 2.31914 7.1932 1.45532 6.11608 1.45532C5.03895 1.45532 4.16577 2.31914 4.16577 3.38472C4.16577 4.4503 5.03895 5.31412 6.11608 5.31412Z" fill="#181818"/>
<path d="M6.11608 18.7093C7.1932 18.7093 8.06639 17.8454 8.06639 16.7799C8.06639 15.7143 7.1932 14.8505 6.11608 14.8505C5.03895 14.8505 4.16577 15.7143 4.16577 16.7799C4.16577 17.8454 5.03895 18.7093 6.11608 18.7093Z" fill="#181818"/>
<path d="M13.8838 18.7093C14.9609 18.7093 15.8341 17.8454 15.8341 16.7799C15.8341 15.7143 14.9609 14.8505 13.8838 14.8505C12.8067 14.8505 11.9335 15.7143 11.9335 16.7799C11.9335 17.8454 12.8067 18.7093 13.8838 18.7093Z" fill="#181818"/>
<path d="M13.8838 5.31412C14.9609 5.31412 15.8341 4.4503 15.8341 3.38472C15.8341 2.31914 14.9609 1.45532 13.8838 1.45532C12.8067 1.45532 11.9335 2.31914 11.9335 3.38472C11.9335 4.4503 12.8067 5.31412 13.8838 5.31412Z" fill="#181818"/>
<path d="M6.11591 9.39319C6.97761 9.39319 7.67616 8.70214 7.67616 7.84967C7.67616 6.99721 6.97761 6.30615 6.11591 6.30615C5.25421 6.30615 4.55566 6.99721 4.55566 7.84967C4.55566 8.70214 5.25421 9.39319 6.11591 9.39319Z" fill="#181818"/>
<path d="M6.68225 6.41155C6.86329 6.4813 7.05758 6.51098 7.25146 6.4985C7.44533 6.48603 7.63409 6.43169 7.80447 6.33932C7.97485 6.24694 8.12271 6.11878 8.23766 5.96382C8.3526 5.80886 8.43185 5.63088 8.46982 5.44238L9.43397 7.18259C9.25294 7.11277 9.05863 7.08304 8.86473 7.09549C8.67084 7.10793 8.48205 7.16226 8.31165 7.25464C8.14126 7.34703 7.99339 7.47522 7.87846 7.63021C7.76353 7.7852 7.68431 7.96322 7.6464 8.15175L6.68225 6.41155Z" fill="#181818"/>
<path d="M4.56628 8.02591C4.54285 7.82449 4.47511 7.63058 4.36784 7.45782C4.26056 7.28507 4.11635 7.13764 3.94532 7.02592C3.7743 6.91419 3.58062 6.84087 3.37789 6.8111C3.17516 6.78134 2.9683 6.79586 2.77185 6.85363L3.57723 5.47717C3.62449 5.67434 3.71479 5.85888 3.8418 6.01785C3.96881 6.17682 4.12946 6.30637 4.31245 6.39739C4.49545 6.48842 4.69636 6.53873 4.9011 6.54478C5.10584 6.55082 5.30943 6.51247 5.49759 6.43241L4.56628 8.02591Z" fill="#181818"/>
<path d="M6.11591 13.8584C6.97761 13.8584 7.67616 13.1673 7.67616 12.3149C7.67616 11.4624 6.97761 10.7714 6.11591 10.7714C5.25421 10.7714 4.55566 11.4624 4.55566 12.3149C4.55566 13.1673 5.25421 13.8584 6.11591 13.8584Z" fill="#181818"/>
<path d="M7.64065 11.9863C7.68115 12.1703 7.7619 12.3433 7.87723 12.4931C7.99257 12.6429 8.13967 12.7659 8.30821 12.8534C8.47674 12.9409 8.66262 12.9908 8.85275 12.9996C9.04288 13.0085 9.23266 12.976 9.40873 12.9044L8.47634 14.6611C8.43584 14.4771 8.35508 14.3041 8.23975 14.1543C8.12442 14.0045 7.97731 13.8815 7.80878 13.794C7.64024 13.7065 7.45437 13.6566 7.26424 13.6478C7.0741 13.6389 6.88433 13.6714 6.70825 13.743L7.64065 11.9863Z" fill="#181818"/>
<path d="M5.47141 13.7203C5.2886 13.6383 5.08985 13.5968 4.88912 13.5989C4.68839 13.6009 4.49056 13.6465 4.3095 13.7322C4.12845 13.818 3.96857 13.9419 3.8411 14.0953C3.71362 14.2487 3.62164 14.4279 3.57162 14.6202L2.79114 13.2288C2.98252 13.2887 3.18484 13.3065 3.3839 13.2808C3.58296 13.2551 3.77393 13.1866 3.94337 13.0802C4.11281 12.9737 4.25663 12.8318 4.36471 12.6644C4.47278 12.497 4.5425 12.3083 4.56897 12.1115L5.47141 13.7203Z" fill="#181818"/>
<path d="M9.99994 15.8756C10.8616 15.8756 11.5602 15.1846 11.5602 14.3321C11.5602 13.4796 10.8616 12.7886 9.99994 12.7886C9.13824 12.7886 8.4397 13.4796 8.4397 14.3321C8.4397 15.1846 9.13824 15.8756 9.99994 15.8756Z" fill="#181818"/>
<path d="M10.9242 15.5758C10.7851 15.677 10.67 15.8071 10.5871 15.957C10.5042 16.1069 10.4556 16.2729 10.4445 16.4434C10.4334 16.6139 10.4602 16.7847 10.523 16.9438C10.5858 17.103 10.6831 17.2466 10.808 17.3646H9.19187C9.3168 17.2466 9.41408 17.103 9.47689 16.9438C9.5397 16.7847 9.56652 16.6139 9.55544 16.4434C9.54437 16.2729 9.49568 16.1069 9.41279 15.957C9.32991 15.8071 9.21484 15.677 9.07568 15.5758H10.9242Z" fill="#181818"/>
<path d="M9.99994 7.28736C10.8616 7.28736 11.5602 6.5963 11.5602 5.74384C11.5602 4.89138 10.8616 4.20032 9.99994 4.20032C9.13824 4.20032 8.4397 4.89138 8.4397 5.74384C8.4397 6.5963 9.13824 7.28736 9.99994 7.28736Z" fill="#181818"/>
<path d="M9.07422 4.50172C9.21923 4.39596 9.33907 4.26007 9.42531 4.1036C9.51155 3.94712 9.56211 3.77386 9.57342 3.59599C9.58474 3.41812 9.55654 3.23995 9.4908 3.07402C9.42507 2.90808 9.3234 2.7584 9.19293 2.6355H10.8069C10.6765 2.7584 10.5748 2.90808 10.5091 3.07402C10.4433 3.23995 10.4151 3.41812 10.4265 3.59599C10.4378 3.77386 10.4883 3.94712 10.5746 4.1036C10.6608 4.26007 10.7806 4.39596 10.9257 4.50172H9.07422Z" fill="#181818"/>
<path d="M13.8836 9.39319C14.7453 9.39319 15.4439 8.70214 15.4439 7.84967C15.4439 6.99721 14.7453 6.30615 13.8836 6.30615C13.0219 6.30615 12.3234 6.99721 12.3234 7.84967C12.3234 8.70214 13.0219 9.39319 13.8836 9.39319Z" fill="#181818"/>
<path d="M14.8865 9.0321C14.7315 9.16077 14.6069 9.32144 14.5214 9.50284C14.4359 9.68424 14.3916 9.88197 14.3916 10.0821C14.3916 10.2823 14.4359 10.48 14.5214 10.6614C14.6069 10.8428 14.7315 11.0035 14.8865 11.1321H12.8806C13.0356 11.0035 13.1602 10.8428 13.2457 10.6614C13.3312 10.48 13.3755 10.2823 13.3755 10.0821C13.3755 9.88197 13.3312 9.68424 13.2457 9.50284C13.1602 9.32144 13.0356 9.16077 12.8806 9.0321H14.8865Z" fill="#181818"/>
<path d="M14.5098 6.43598C14.7016 6.51915 14.9095 6.55976 15.1189 6.55498C15.3283 6.55019 15.5341 6.50011 15.7219 6.40826C15.9096 6.31641 16.0748 6.18502 16.2057 6.0233C16.3367 5.86159 16.4303 5.67347 16.4799 5.47217L17.2756 6.85077C17.0751 6.79029 16.8637 6.77396 16.6562 6.80295C16.4487 6.83194 16.2502 6.90553 16.0745 7.01855C15.8988 7.13157 15.7503 7.28129 15.6394 7.45717C15.5285 7.63305 15.4578 7.83083 15.4324 8.03661L14.5098 6.43598Z" fill="#181818"/>
<path d="M13.8836 13.8584C14.7453 13.8584 15.4439 13.1673 15.4439 12.3149C15.4439 11.4624 14.7453 10.7714 13.8836 10.7714C13.0219 10.7714 12.3234 11.4624 12.3234 12.3149C12.3234 13.1673 13.0219 13.8584 13.8836 13.8584Z" fill="#181818"/>
<path d="M15.4288 12.1006C15.4575 12.3017 15.5302 12.4943 15.642 12.6646C15.7538 12.835 15.902 12.9791 16.0761 13.0869C16.2502 13.1946 16.446 13.2633 16.6498 13.2882C16.8536 13.3132 17.0604 13.2937 17.2557 13.2311L16.4854 14.6265C16.433 14.4301 16.3378 14.2474 16.2066 14.0912C16.0753 13.9351 15.911 13.8092 15.7254 13.7225C15.5397 13.6358 15.3371 13.5904 15.1318 13.5893C14.9265 13.5883 14.7234 13.6317 14.5369 13.7166L15.4288 12.1006Z" fill="#181818"/>
<path d="M17.6167 15.4898C18.263 15.4898 18.7869 14.9715 18.7869 14.3322C18.7869 13.6929 18.263 13.1746 17.6167 13.1746C16.9704 13.1746 16.4465 13.6929 16.4465 14.3322C16.4465 14.9715 16.9704 15.4898 17.6167 15.4898Z" fill="#181818"/>
<path d="M17.6167 6.90158C18.263 6.90158 18.7869 6.38329 18.7869 5.74394C18.7869 5.1046 18.263 4.5863 17.6167 4.5863C16.9704 4.5863 16.4465 5.1046 16.4465 5.74394C16.4465 6.38329 16.9704 6.90158 17.6167 6.90158Z" fill="#181818"/>
<path d="M2.43874 6.90158C3.08501 6.90158 3.60892 6.38329 3.60892 5.74394C3.60892 5.1046 3.08501 4.5863 2.43874 4.5863C1.79246 4.5863 1.26855 5.1046 1.26855 5.74394C1.26855 6.38329 1.79246 6.90158 2.43874 6.90158Z" fill="#181818"/>
<path d="M2.43874 15.4898C3.08501 15.4898 3.60892 14.9715 3.60892 14.3322C3.60892 13.6929 3.08501 13.1746 2.43874 13.1746C1.79246 13.1746 1.26855 13.6929 1.26855 14.3322C1.26855 14.9715 1.79246 15.4898 2.43874 15.4898Z" fill="#181818"/>
<path d="M10.0001 19.3596C10.6464 19.3596 11.1703 18.8413 11.1703 18.202C11.1703 17.5626 10.6464 17.0443 10.0001 17.0443C9.35387 17.0443 8.82996 17.5626 8.82996 18.202C8.82996 18.8413 9.35387 19.3596 10.0001 19.3596Z" fill="#181818"/>
<path d="M10.0001 2.95493C10.6464 2.95493 11.1703 2.43664 11.1703 1.79729C11.1703 1.15794 10.6464 0.639648 10.0001 0.639648C9.35387 0.639648 8.82996 1.15794 8.82996 1.79729C8.82996 2.43664 9.35387 2.95493 10.0001 2.95493Z" fill="#181818"/>
</svg>
